<svg width="35" height="28" viewBox="0 0 35 28" fill="none" xmlns="http://www.w3.org/2000/svg">
<path d="M32.5042 4.79486C29.4284 1.8623 23.965 0.0706836 17.8897 0.00221484C17.6303 -0.000738281 17.3693 -0.000738281 17.1098 0.00221484C11.0346 0.0706836 5.57124 1.8623 2.49529 4.79486C-0.648754 7.79239 -0.734774 11.393 2.26515 14.4266L14.8329 27.1352C14.8386 27.1409 14.8442 27.1465 14.85 27.1521C15.403 27.6831 16.3936 28 17.4999 28C18.6062 28 19.5968 27.683 20.1496 27.1521C20.1555 27.1465 20.1611 27.1409 20.1668 27.1352L32.7345 14.4266C35.7343 11.393 35.6483 7.79239 32.5042 4.79486ZM17.4997 12.6875C13.5698 12.6875 10.3726 10.9212 10.3726 8.75003C10.3726 6.57888 13.5698 4.81253 17.4997 4.81253C21.4297 4.81253 24.6269 6.57888 24.6269 8.75003C24.6269 10.9212 21.4298 12.6875 17.4997 12.6875Z" fill="#4F4F4F"/>
</svg>
