<svg width="68" height="27" viewBox="0 0 68 27" fill="none" xmlns="http://www.w3.org/2000/svg">
<g clip-path="url(#clip0_9_890)">
<path d="M44.5012 13.6896L67.0792 21.5753V5.47101L44.5012 13.6896Z" fill="#404040"/>
<path d="M0.107666 5.47101V21.5753L22.6857 13.6896L0.107666 5.47101Z" fill="#404040"/>
<path d="M62.8933 0.78125H4.29261C2.20392 0.78125 0.546354 1.6415 0.232422 2.74919L33.593 14.8921L66.9535 2.74919C66.6396 1.6415 64.982 0.78125 62.8933 0.78125Z" fill="#404040"/>
<path d="M40.6686 15.0864L34.7457 17.2416C34.3941 17.3688 33.9964 17.4312 33.5946 17.4312C33.1928 17.4312 32.7951 17.3688 32.4435 17.2416L26.5207 15.084L0.242432 24.267C0.564736 25.3654 2.21393 26.2187 4.29425 26.2187H62.895C64.9753 26.2187 66.6245 25.3654 66.9468 24.267L40.6686 15.0864Z" fill="#404040"/>
</g>
<defs>
<clipPath id="clip0_9_890">
<rect width="66.9722" height="27" fill="white" transform="translate(0.107666)"/>
</clipPath>
</defs>
</svg>
