<svg width="64" height="64" viewBox="0 0 64 64" fill="none" xmlns="http://www.w3.org/2000/svg">
<path d="M5.375 37.9287L31.375 22.9176C31.7618 22.6943 32.2382 22.6943 32.625 22.9176L58.625 37.9287C59.4583 38.4098 59.4583 39.6126 58.625 40.0938L32.625 55.1049C32.2382 55.3282 31.7618 55.3282 31.375 55.1049L5.375 40.0938C4.54167 39.6126 4.54167 38.4098 5.375 37.9287Z" stroke="#212322" stroke-width="1.5"/>
<path d="M5.38374 31.3042L31.327 16.603C31.7093 16.3864 32.1773 16.3864 32.5596 16.603L58.5029 31.3042C59.3479 31.7831 59.3479 33.0005 58.5029 33.4793L32.5596 48.1805C32.1773 48.3971 31.7093 48.3971 31.327 48.1805L5.38373 33.4793C4.53876 33.0005 4.53875 31.7831 5.38374 31.3042L5.01398 30.6517L5.38374 31.3042Z" fill="#E3E3E3" stroke="#212322" stroke-width="1.5" stroke-linecap="round"/>
<path d="M5.375 23.9287L31.375 8.91759C31.7618 8.6943 32.2382 8.6943 32.625 8.91759L58.625 23.9287C59.4583 24.4098 59.4583 25.6126 58.625 26.0938L32.625 41.1049C32.2382 41.3282 31.7618 41.3282 31.375 41.1049L5.375 26.0938C4.54167 25.6126 4.54167 24.4098 5.375 23.9287Z" fill="#E3E3E3" stroke="#212322" stroke-width="1.5"/>
</svg>
